<svg width="33" height="34" viewBox="0 0 33 34" fill="none" xmlns="http://www.w3.org/2000/svg">
<ellipse cx="16.3715" cy="16.9805" rx="16.3715" ry="16.9805" fill="#A585C1"/>
<path d="M15.086 29.8452C15.086 30.556 15.6622 31.1323 16.373 31.1323C17.0839 31.1323 17.6601 30.556 17.6601 29.8452H15.086ZM17.2831 7.2295C16.7805 6.72687 15.9656 6.72687 15.463 7.2295L7.27225 15.4202C6.76962 15.9228 6.76962 16.7378 7.27225 17.2404C7.77487 17.743 8.58978 17.743 9.09241 17.2404L16.373 9.95974L23.6537 17.2404C24.1563 17.743 24.9712 17.743 25.4738 17.2404C25.9765 16.7378 25.9765 15.9228 25.4738 15.4202L17.2831 7.2295ZM17.6601 29.8452L17.6601 8.13958H15.086L15.086 29.8452H17.6601Z" fill="white"/>
</svg>
