<svg width="251" height="75" viewBox="0 0 251 75" fill="none" xmlns="http://www.w3.org/2000/svg">
<path d="M241.455 74.1816H8.77009C3.93533 74.1816 0 70.2351 0 65.404V8.76454C0 3.93161 3.93533 0 8.77009 0H241.455C246.289 0 250.363 3.93161 250.363 8.76454V65.404C250.363 70.2351 246.289 74.1816 241.455 74.1816Z" fill="#A6A6A6"/>
<path d="M248.568 65.4062C248.568 69.3304 245.391 72.5091 241.458 72.5091H8.77192C4.84215 72.5091 1.65234 69.3304 1.65234 65.4062V8.76303C1.65234 4.84069 4.84215 1.65088 8.77192 1.65088H241.456C245.391 1.65088 248.566 4.84069 248.566 8.76303L248.568 65.4062Z" fill="black"/>
<path d="M55.8731 36.6905C55.8192 30.7134 60.7671 27.8055 60.9935 27.6701C58.1912 23.5845 53.8479 23.0264 52.3217 22.9818C48.6738 22.5979 45.1354 25.1647 43.2771 25.1647C41.3817 25.1647 38.5201 23.0189 35.4361 23.0819C31.4673 23.1432 27.7545 25.4409 25.7183 29.0091C21.516 36.2843 24.6501 46.9759 28.6762 52.8566C30.6904 55.7365 33.0437 58.9524 36.1242 58.8393C39.1377 58.7149 40.2634 56.918 43.9001 56.918C47.5036 56.918 48.5607 58.8393 51.7023 58.7669C54.9365 58.7149 56.9728 55.8738 58.9164 52.9678C61.2439 49.6668 62.1785 46.4157 62.2157 46.2488C62.1395 46.2229 55.9342 43.8545 55.8731 36.6905Z" fill="white"/>
<path d="M49.9388 19.1135C51.5596 17.0865 52.6687 14.3288 52.3608 11.5303C50.0149 11.6341 47.0809 13.153 45.3914 15.1355C43.8968 16.8825 42.5616 19.7459 42.9064 22.4387C45.5417 22.6352 48.2474 21.1089 49.9388 19.1135Z" fill="white"/>
<path d="M99.488 58.4259H95.2763L92.9693 51.1766H84.9503L82.7526 58.4259H78.6523L86.597 33.7456H91.5043L99.488 58.4259ZM92.2739 48.1349L90.1876 41.6905C89.9669 41.0321 89.5534 39.4817 88.9431 37.0412H88.8688C88.626 38.0908 88.2346 39.6413 87.6969 41.6905L85.6476 48.1349H92.2739Z" fill="white"/>
<path d="M119.919 49.3083C119.919 52.3349 119.101 54.7273 117.466 56.4835C116 58.047 114.181 58.8277 112.009 58.8277C109.665 58.8277 107.981 57.9857 106.956 56.3018H106.882V65.6765H102.928V46.4876C102.928 44.5849 102.878 42.6321 102.781 40.6292H106.259L106.479 43.4499H106.553C107.872 41.3246 109.873 40.2637 112.558 40.2637C114.658 40.2637 116.41 41.0928 117.812 42.7526C119.218 44.4142 119.919 46.5988 119.919 49.3083ZM115.891 49.4531C115.891 47.7208 115.502 46.2929 114.719 45.169C113.864 43.9969 112.716 43.4109 111.277 43.4109C110.301 43.4109 109.415 43.7374 108.623 44.3808C107.829 45.0299 107.31 45.8775 107.067 46.9272C106.945 47.4168 106.884 47.8174 106.884 48.1326V51.0998C106.884 52.3944 107.28 53.4865 108.074 54.3786C108.868 55.2708 109.899 55.7158 111.167 55.7158C112.657 55.7158 113.816 55.1408 114.645 53.9948C115.476 52.8469 115.891 51.3335 115.891 49.4531Z" fill="white"/>
<path d="M140.386 49.3083C140.386 52.3349 139.568 54.7273 137.931 56.4835C136.467 58.047 134.648 58.8277 132.476 58.8277C130.132 58.8277 128.448 57.9857 127.425 56.3018H127.35V65.6765H123.396V46.4876C123.396 44.5849 123.346 42.6321 123.25 40.6292H126.727L126.948 43.4499H127.022C128.339 41.3246 130.34 40.2637 133.027 40.2637C135.125 40.2637 136.877 41.0928 138.283 42.7526C139.683 44.4142 140.386 46.5988 140.386 49.3083ZM136.358 49.4531C136.358 47.7208 135.967 46.2929 135.184 45.169C134.329 43.9969 133.185 43.4109 131.744 43.4109C130.766 43.4109 129.882 43.7374 129.088 44.3808C128.294 45.0299 127.777 45.8775 127.534 46.9272C127.413 47.4168 127.35 47.8174 127.35 48.1326V51.0998C127.35 52.3944 127.747 53.4865 128.537 54.3786C129.331 55.2689 130.362 55.7158 131.634 55.7158C133.123 55.7158 134.283 55.1408 135.112 53.9948C135.943 52.8469 136.358 51.3335 136.358 49.4531Z" fill="white"/>
<path d="M163.272 51.5045C163.272 53.6037 162.543 55.3118 161.08 56.6304C159.472 58.0714 157.234 58.791 154.357 58.791C151.702 58.791 149.573 58.2792 147.961 57.2536L148.877 53.958C150.613 55.0076 152.518 55.5344 154.593 55.5344C156.082 55.5344 157.241 55.1969 158.074 54.5255C158.903 53.8541 159.316 52.9528 159.316 51.8289C159.316 50.8275 158.975 49.9838 158.291 49.2995C157.61 48.6152 156.473 47.979 154.886 47.3911C150.565 45.7794 148.406 43.4188 148.406 40.3141C148.406 38.2854 149.163 36.6218 150.678 35.3274C152.188 34.031 154.202 33.3838 156.72 33.3838C158.966 33.3838 160.831 33.7752 162.321 34.5559L161.332 37.779C159.941 37.0223 158.369 36.6441 156.609 36.6441C155.218 36.6441 154.131 36.9871 153.352 37.6697C152.694 38.2798 152.364 39.0235 152.364 39.9044C152.364 40.8797 152.74 41.6865 153.497 42.3207C154.155 42.9068 155.351 43.541 157.087 44.2253C159.211 45.0803 160.77 46.0799 161.774 47.2261C162.773 48.3683 163.272 49.7983 163.272 51.5045Z" fill="white"/>
<path d="M176.346 43.5967H171.988V52.2372C171.988 54.4347 172.755 55.5326 174.295 55.5326C175.001 55.5326 175.587 55.4714 176.051 55.349L176.16 58.3516C175.382 58.6426 174.356 58.7893 173.086 58.7893C171.524 58.7893 170.304 58.3126 169.423 57.3612C168.546 56.408 168.104 54.8094 168.104 52.5635V43.5932H165.508V40.6258H168.104V37.3674L171.988 36.1953V40.6258H176.346V43.5967Z" fill="white"/>
<path d="M196.009 49.3807C196.009 52.1161 195.226 54.362 193.665 56.1183C192.027 57.9263 189.854 58.8276 187.144 58.8276C184.533 58.8276 182.454 57.9616 180.904 56.2295C179.353 54.4974 178.578 52.3108 178.578 49.6755C178.578 46.9178 179.376 44.659 180.976 42.9027C182.573 41.1446 184.728 40.2656 187.437 40.2656C190.048 40.2656 192.15 41.1317 193.735 42.8656C195.252 44.5478 196.009 46.7194 196.009 49.3807ZM191.907 49.5086C191.907 47.8673 191.556 46.4597 190.846 45.2859C190.017 43.8654 188.832 43.1568 187.296 43.1568C185.707 43.1568 184.5 43.8672 183.671 45.2859C182.96 46.4616 182.61 47.8915 182.61 49.5829C182.61 51.224 182.96 52.6316 183.671 53.8037C184.526 55.2243 185.72 55.9328 187.261 55.9328C188.771 55.9328 189.956 55.2095 190.811 53.7666C191.54 52.5705 191.907 51.1481 191.907 49.5086Z" fill="white"/>
<path d="M208.865 44.1065C208.474 44.0341 208.056 43.9969 207.619 43.9969C206.228 43.9969 205.152 44.5218 204.396 45.5733C203.737 46.5005 203.407 47.6726 203.407 49.0878V58.4253H199.455L199.492 46.2335C199.492 44.1824 199.442 42.3149 199.344 40.6311H202.788L202.932 44.0359H203.042C203.459 42.8657 204.117 41.9235 205.019 41.2169C205.9 40.581 206.851 40.2637 207.877 40.2637C208.242 40.2637 208.573 40.2898 208.865 40.3361V44.1065Z" fill="white"/>
<path d="M226.547 48.6855C226.547 49.3938 226.501 49.9911 226.401 50.4787H214.54C214.586 52.2368 215.16 53.5815 216.261 54.5086C217.261 55.3377 218.554 55.7531 220.14 55.7531C221.896 55.7531 223.499 55.4731 224.94 54.9111L225.56 57.6558C223.876 58.3902 221.888 58.7555 219.593 58.7555C216.835 58.7555 214.667 57.9433 213.092 56.3206C211.519 54.6979 210.73 52.5187 210.73 49.7852C210.73 47.1016 211.463 44.8669 212.929 43.0848C214.465 41.1821 216.541 40.2307 219.153 40.2307C221.717 40.2307 223.659 41.1821 224.978 43.0848C226.021 44.5961 226.547 46.4657 226.547 48.6855ZM222.777 47.6599C222.802 46.4878 222.543 45.4753 222.009 44.6203C221.325 43.5206 220.273 42.9717 218.857 42.9717C217.565 42.9717 216.514 43.5077 215.711 44.5832C215.051 45.4382 214.661 46.4638 214.54 47.658H222.777V47.6599Z" fill="white"/>
<path d="M90.9663 18.5622C90.9663 20.7451 90.3116 22.388 89.0042 23.4915C87.7933 24.5096 86.0723 25.0197 83.843 25.0197C82.7377 25.0197 81.792 24.9715 81 24.8751V12.9485C82.0329 12.7816 83.1458 12.6963 84.3475 12.6963C86.4709 12.6963 88.0714 13.1581 89.1506 14.0816C90.3598 15.1257 90.9663 16.6186 90.9663 18.5622ZM88.9169 18.616C88.9169 17.201 88.5425 16.1161 87.7933 15.3594C87.0439 14.6046 85.9498 14.2263 84.5088 14.2263C83.8969 14.2263 83.3757 14.2671 82.9436 14.3524V23.4193C83.1827 23.4562 83.6204 23.4729 84.2565 23.4729C85.7439 23.4729 86.892 23.0594 87.7004 22.2324C88.5091 21.4052 88.9169 20.1997 88.9169 18.616Z" fill="white"/>
<path d="M101.832 20.469C101.832 21.8136 101.448 22.9152 100.68 23.7793C99.8754 24.6677 98.8091 25.111 97.4776 25.111C96.1941 25.111 95.1725 24.6863 94.4101 23.8332C93.6499 22.982 93.2695 21.9081 93.2695 20.6138C93.2695 19.2599 93.6609 18.149 94.4473 17.2867C95.2336 16.4243 96.2907 15.9922 97.6222 15.9922C98.9055 15.9922 99.9368 16.4169 100.717 17.2681C101.459 18.0952 101.832 19.1635 101.832 20.469ZM99.8162 20.5322C99.8162 19.7254 99.6418 19.0336 99.295 18.4569C98.8869 17.7596 98.3065 17.4109 97.5517 17.4109C96.771 17.4109 96.1774 17.7596 95.7696 18.4569C95.4209 19.0336 95.2484 19.7365 95.2484 20.5673C95.2484 21.374 95.4228 22.0659 95.7696 22.6425C96.1906 23.34 96.7766 23.6886 97.5331 23.6886C98.275 23.6886 98.8573 23.3343 99.2765 22.6239C99.6363 22.0362 99.8162 21.3388 99.8162 20.5322Z" fill="white"/>
<path d="M116.401 16.1699L113.665 24.9121H111.885L110.752 21.1161C110.464 20.1683 110.231 19.2262 110.049 18.2915H110.014C109.845 19.2522 109.611 20.1925 109.311 21.1161L108.107 24.9121H106.307L103.734 16.1699H105.732L106.72 20.326C106.959 21.3089 107.156 22.2454 107.314 23.1319H107.349C107.494 22.4013 107.733 21.4701 108.07 20.3446L109.311 16.1718H110.895L112.083 20.2555C112.371 21.2513 112.605 22.2101 112.784 23.1338H112.838C112.97 22.2343 113.168 21.2755 113.432 20.2555L114.492 16.1718H116.401V16.1699Z" fill="white"/>
<path d="M126.479 24.9122H124.536V19.905C124.536 18.362 123.95 17.5905 122.774 17.5905C122.197 17.5905 121.732 17.8019 121.37 18.2266C121.012 18.6513 120.83 19.152 120.83 19.7251V24.9103H118.887V18.668C118.887 17.9002 118.863 17.0675 118.816 16.1662H120.524L120.615 17.533H120.669C120.895 17.1083 121.233 16.7578 121.676 16.4778C122.203 16.1514 122.793 15.9863 123.438 15.9863C124.254 15.9863 124.933 16.2497 125.472 16.7782C126.144 17.4254 126.479 18.3917 126.479 19.675V24.9122Z" fill="white"/>
<path d="M131.84 24.9121H129.898V12.1584H131.84V24.9121Z" fill="white"/>
<path d="M143.277 20.469C143.277 21.8136 142.893 22.9152 142.126 23.7793C141.321 24.6677 140.253 25.111 138.923 25.111C137.638 25.111 136.616 24.6863 135.855 23.8332C135.095 22.982 134.715 21.9081 134.715 20.6138C134.715 19.2599 135.106 18.149 135.893 17.2867C136.679 16.4243 137.736 15.9922 139.066 15.9922C140.351 15.9922 141.38 16.4169 142.163 17.2681C142.904 18.0952 143.277 19.1635 143.277 20.469ZM141.26 20.5322C141.26 19.7254 141.085 19.0336 140.738 18.4569C140.332 17.7596 139.75 17.4109 138.997 17.4109C138.214 17.4109 137.621 17.7596 137.215 18.4569C136.866 19.0336 136.694 19.7365 136.694 20.5673C136.694 21.374 136.868 22.0659 137.215 22.6425C137.636 23.34 138.222 23.6886 138.978 23.6886C139.72 23.6886 140.301 23.3343 140.72 22.6239C141.081 22.0362 141.26 21.3388 141.26 20.5322Z" fill="white"/>
<path d="M152.689 24.9124H150.944L150.799 23.9056H150.745C150.148 24.7086 149.297 25.111 148.191 25.111C147.366 25.111 146.699 24.8457 146.196 24.3191C145.74 23.8407 145.512 23.2452 145.512 22.5386C145.512 21.4704 145.957 20.6563 146.853 20.0926C147.746 19.5288 149.004 19.2525 150.623 19.2655V19.1023C150.623 17.9506 150.018 17.3757 148.807 17.3757C147.945 17.3757 147.185 17.5927 146.528 18.0229L146.133 16.747C146.945 16.2444 147.949 15.9922 149.132 15.9922C151.416 15.9922 152.563 17.1976 152.563 19.6085V22.828C152.563 23.7015 152.605 24.3969 152.689 24.9124ZM150.671 21.9081V20.56C148.527 20.5228 147.455 21.1107 147.455 22.3216C147.455 22.7779 147.578 23.1192 147.828 23.3473C148.078 23.5753 148.397 23.6886 148.777 23.6886C149.204 23.6886 149.603 23.5532 149.966 23.2843C150.332 23.0135 150.556 22.6705 150.639 22.2495C150.66 22.1547 150.671 22.0398 150.671 21.9081Z" fill="white"/>
<path d="M163.728 24.9121H162.004L161.913 23.5082H161.859C161.308 24.5764 160.37 25.1105 159.051 25.1105C157.998 25.1105 157.121 24.697 156.425 23.8698C155.73 23.0427 155.383 21.9689 155.383 20.6504C155.383 19.2354 155.759 18.0893 156.516 17.2139C157.249 16.3979 158.146 15.9899 159.214 15.9899C160.388 15.9899 161.21 16.385 161.677 17.1768H161.714V12.1584H163.66V22.5568C163.66 23.4081 163.682 24.1925 163.728 24.9121ZM161.714 21.2254V19.7676C161.714 19.5154 161.696 19.3114 161.661 19.1556C161.551 18.6883 161.315 18.2951 160.958 17.978C160.596 17.6609 160.16 17.5014 159.657 17.5014C158.932 17.5014 158.365 17.7888 157.948 18.3656C157.534 18.9424 157.325 19.6786 157.325 20.578C157.325 21.4423 157.523 22.1433 157.922 22.6829C158.343 23.2578 158.91 23.5453 159.621 23.5453C160.259 23.5453 160.768 23.306 161.156 22.8258C161.531 22.3824 161.714 21.8483 161.714 21.2254Z" fill="white"/>
<path d="M180.351 20.469C180.351 21.8136 179.967 22.9152 179.2 23.7793C178.395 24.6677 177.33 25.111 175.997 25.111C174.715 25.111 173.694 24.6863 172.929 23.8332C172.169 22.982 171.789 21.9081 171.789 20.6138C171.789 19.2599 172.18 18.149 172.967 17.2867C173.753 16.4243 174.81 15.9922 176.143 15.9922C177.425 15.9922 178.458 16.4169 179.237 17.2681C179.979 18.0952 180.351 19.1635 180.351 20.469ZM178.337 20.5322C178.337 19.7254 178.163 19.0336 177.816 18.4569C177.406 17.7596 176.828 17.4109 176.071 17.4109C175.292 17.4109 174.699 17.7596 174.289 18.4569C173.94 19.0336 173.768 19.7365 173.768 20.5673C173.768 21.374 173.942 22.0659 174.289 22.6425C174.71 23.34 175.296 23.6886 176.052 23.6886C176.794 23.6886 177.379 23.3343 177.798 22.6239C178.156 22.0362 178.337 21.3388 178.337 20.5322Z" fill="white"/>
<path d="M190.802 24.9122H188.86V19.905C188.86 18.362 188.274 17.5905 187.096 17.5905C186.52 17.5905 186.054 17.8019 185.694 18.2266C185.335 18.6513 185.155 19.152 185.155 19.7251V24.9103H183.209V18.668C183.209 17.9002 183.187 17.0675 183.141 16.1662H184.847L184.938 17.533H184.991C185.219 17.1083 185.557 16.7578 185.998 16.4778C186.527 16.1514 187.115 15.9863 187.762 15.9863C188.576 15.9863 189.255 16.2497 189.795 16.7782C190.468 17.4254 190.802 18.3917 190.802 19.675V24.9122Z" fill="white"/>
<path d="M203.883 17.626H201.743V21.8728C201.743 22.9523 202.123 23.4918 202.876 23.4918C203.225 23.4918 203.514 23.4622 203.742 23.401L203.792 24.8754C203.408 25.02 202.904 25.0924 202.282 25.0924C201.515 25.0924 200.918 24.8588 200.485 24.3914C200.051 23.9239 199.836 23.1377 199.836 22.0343V17.626H198.559V16.1702H199.836V14.5678L201.741 13.9929V16.1683H203.881V17.626H203.883Z" fill="white"/>
<path d="M214.171 24.9121H212.224V19.9418C212.224 18.3749 211.638 17.5904 210.466 17.5904C209.564 17.5904 208.949 18.0448 208.611 18.9535C208.552 19.1445 208.519 19.3782 208.519 19.6526V24.9102H206.578V12.1584H208.519V17.4272H208.557C209.168 16.4684 210.046 15.9899 211.183 15.9899C211.989 15.9899 212.654 16.2533 213.182 16.7818C213.841 17.4402 214.171 18.4194 214.171 19.7138V24.9121Z" fill="white"/>
<path d="M224.787 20.1276C224.787 20.4762 224.762 20.7694 224.716 21.0085H218.887C218.912 21.8728 219.192 22.5311 219.73 22.9873C220.224 23.3954 220.861 23.5992 221.639 23.5992C222.501 23.5992 223.287 23.4622 223.996 23.1857L224.301 24.5358C223.471 24.8957 222.496 25.0755 221.366 25.0755C220.012 25.0755 218.945 24.6768 218.174 23.8794C217.4 23.0818 217.016 22.0118 217.016 20.6692C217.016 19.3506 217.372 18.2527 218.094 17.3774C218.847 16.4427 219.866 15.9753 221.151 15.9753C222.409 15.9753 223.364 16.4427 224.009 17.3774C224.531 18.1192 224.787 19.0372 224.787 20.1276ZM222.932 19.6251C222.947 19.0483 222.82 18.5513 222.557 18.1322C222.219 17.5925 221.706 17.3217 221.011 17.3217C220.377 17.3217 219.859 17.5851 219.463 18.1136C219.142 18.5346 218.95 19.0372 218.887 19.6251H222.932Z" fill="white"/>
</svg>
