<svg width="40" height="26" viewBox="0 0 40 26" fill="none" xmlns="http://www.w3.org/2000/svg">
<path d="M13.6868 4.48157C13.8028 3.65921 14.313 1.90061 15.4262 1.44515C16.8177 0.875821 18.2092 2.39403 17.8613 3.53269C17.5134 4.67135 15.948 5.61967 16.1219 7.51744C15.2523 8.46632 3.25076 18.3347 1.68534 19.8529C0.119928 21.3711 1.69885 21.9814 2.38108 22.1302C3.25096 22.32 21.1663 22.6995 29.5151 20.9916C32.1241 20.2325 28.8194 17.7654 28.8194 17.7654C28.8194 17.7654 21.2242 11.7558 18.0354 9.22542" stroke="white" stroke-width="0.95102" stroke-linecap="round"/>
<path d="M21.7558 7.28284C21.8766 6.46048 22.4081 4.70188 23.5677 4.24642C25.0171 3.67709 26.4666 5.1953 26.1042 6.33396C25.7418 7.47262 24.1112 8.42094 24.2924 10.3187C23.3865 11.2676 10.8849 21.136 9.25426 22.6542C7.62362 24.1724 9.26833 24.7826 9.97899 24.9315C10.8851 25.1213 29.5469 25.5008 38.2436 23.7928C40.9614 23.0337 37.5189 20.5666 37.5189 20.5666C37.5189 20.5666 29.6073 14.557 26.2856 12.0267" stroke="white" stroke-width="0.95102" stroke-linecap="round"/>
</svg>
