<svg width="54" height="32" viewBox="0 0 54 32" fill="none" xmlns="http://www.w3.org/2000/svg">
<path d="M18.0275 4.98613C18.1833 3.94878 18.8689 1.73046 20.3648 1.15593C22.2347 0.43777 24.1045 2.35287 23.6371 3.78919C23.1696 5.22552 21.066 6.42175 21.2997 8.81562C20.1311 10.0126 4.00355 22.4607 1.89996 24.3758C-0.20363 26.2909 1.91811 27.0607 2.83489 27.2484C4.00382 27.4878 28.0783 27.9666 39.2974 25.8121C42.8034 24.8546 38.3625 21.7425 38.3625 21.7425C38.3625 21.7425 28.1562 14.1619 23.8711 10.9701" stroke="#3C3C3C" stroke-width="1.7" stroke-linecap="round"/>
<path d="M28.8717 8.51884C29.034 7.4815 29.7482 5.26318 31.3064 4.68865C33.2542 3.97048 35.202 5.88558 34.715 7.32191C34.2281 8.75823 32.0368 9.95446 32.2803 12.3483C31.063 13.5453 14.2635 25.9934 12.0722 27.9085C9.88098 29.8236 12.0911 30.5934 13.0461 30.7812C14.2637 31.0205 39.3413 31.4993 51.0279 29.3448C54.68 28.3873 50.054 25.2753 50.054 25.2753C50.054 25.2753 39.4224 17.6947 34.9588 14.5028" stroke="#3C3C3C" stroke-width="1.7" stroke-linecap="round"/>
</svg>
