<svg width="44" height="36" viewBox="0 0 44 36" fill="none" xmlns="http://www.w3.org/2000/svg">
<mask id="path-1-inside-1_5752_5457" fill="white">
<path d="M37.5782 6.77509H33.1542C32.7262 6.77509 32.3422 6.50309 32.1942 6.10109L31.0382 2.91709C30.5502 1.56709 29.2562 0.663086 27.8222 0.663086H16.2282C14.7922 0.663086 13.5002 1.56709 13.0142 2.91509L11.8542 6.09909C11.7062 6.50309 11.3202 6.77509 10.8942 6.77509H6.47022C3.35622 6.77509 0.824219 9.30509 0.824219 12.4171V29.6971C0.824219 32.8091 3.35622 35.3391 6.46822 35.3391H37.5782C40.6922 35.3391 43.2222 32.8071 43.2222 29.6971V12.4171C43.2242 9.30509 40.6922 6.77509 37.5782 6.77509ZM40.8242 29.6971C40.8242 31.4871 39.3662 32.9411 37.5782 32.9411H6.47022C4.68022 32.9411 3.22422 31.4851 3.22422 29.6971V12.4171C3.22422 10.6271 4.68222 9.17309 6.47022 9.17309H10.8942C12.3262 9.17309 13.6162 8.26909 14.1082 6.92109L15.2682 3.73309C15.4122 3.33309 15.8002 3.06109 16.2262 3.06109H27.8202C28.2482 3.06109 28.6342 3.33309 28.7802 3.73509L29.9382 6.92309C30.4302 8.26909 31.7222 9.17309 33.1522 9.17309H37.5762C39.3662 9.17309 40.8222 10.6291 40.8222 12.4171L40.8242 29.6971ZM22.0242 12.7031C17.5022 12.7031 13.8242 16.3811 13.8242 20.9031C13.8242 25.4251 17.5022 29.1031 22.0242 29.1031C26.5462 29.1031 30.2242 25.4251 30.2242 20.9031C30.2242 16.3811 26.5462 12.7031 22.0242 12.7031ZM22.0242 26.7031C18.8262 26.7031 16.2242 24.0991 16.2242 20.9031C16.2242 17.7071 18.8282 15.1031 22.0242 15.1031C25.2202 15.1031 27.8242 17.7071 27.8242 20.9031C27.8242 24.0991 25.2222 26.7031 22.0242 26.7031Z"/>
</mask>
<path d="M37.5782 6.77509H33.1542C32.7262 6.77509 32.3422 6.50309 32.1942 6.10109L31.0382 2.91709C30.5502 1.56709 29.2562 0.663086 27.8222 0.663086H16.2282C14.7922 0.663086 13.5002 1.56709 13.0142 2.91509L11.8542 6.09909C11.7062 6.50309 11.3202 6.77509 10.8942 6.77509H6.47022C3.35622 6.77509 0.824219 9.30509 0.824219 12.4171V29.6971C0.824219 32.8091 3.35622 35.3391 6.46822 35.3391H37.5782C40.6922 35.3391 43.2222 32.8071 43.2222 29.6971V12.4171C43.2242 9.30509 40.6922 6.77509 37.5782 6.77509ZM40.8242 29.6971C40.8242 31.4871 39.3662 32.9411 37.5782 32.9411H6.47022C4.68022 32.9411 3.22422 31.4851 3.22422 29.6971V12.4171C3.22422 10.6271 4.68222 9.17309 6.47022 9.17309H10.8942C12.3262 9.17309 13.6162 8.26909 14.1082 6.92109L15.2682 3.73309C15.4122 3.33309 15.8002 3.06109 16.2262 3.06109H27.8202C28.2482 3.06109 28.6342 3.33309 28.7802 3.73509L29.9382 6.92309C30.4302 8.26909 31.7222 9.17309 33.1522 9.17309H37.5762C39.3662 9.17309 40.8222 10.6291 40.8222 12.4171L40.8242 29.6971ZM22.0242 12.7031C17.5022 12.7031 13.8242 16.3811 13.8242 20.9031C13.8242 25.4251 17.5022 29.1031 22.0242 29.1031C26.5462 29.1031 30.2242 25.4251 30.2242 20.9031C30.2242 16.3811 26.5462 12.7031 22.0242 12.7031ZM22.0242 26.7031C18.8262 26.7031 16.2242 24.0991 16.2242 20.9031C16.2242 17.7071 18.8282 15.1031 22.0242 15.1031C25.2202 15.1031 27.8242 17.7071 27.8242 20.9031C27.8242 24.0991 25.2222 26.7031 22.0242 26.7031Z" fill="#A585C1"/>
<path d="M32.1942 6.10109L29.7085 7.00356L29.7126 7.01471L32.1942 6.10109ZM31.0382 2.91709L28.5513 3.81607L28.5525 3.81955L31.0382 2.91709ZM13.0142 2.91509L15.4989 3.82031L15.5019 3.81199L13.0142 2.91509ZM11.8542 6.09909L14.3373 7.00873L14.3389 7.00431L11.8542 6.09909ZM6.47022 6.77509V9.41953V6.77509ZM43.2222 12.4171L40.5778 12.4154V12.4171H43.2222ZM40.8242 29.6971H43.4687V29.6968L40.8242 29.6971ZM14.1082 6.92109L16.5924 7.82777L16.5933 7.82531L14.1082 6.92109ZM15.2682 3.73309L17.7533 4.63731L17.7563 4.62881L15.2682 3.73309ZM28.7802 3.73509L26.2946 4.63781L26.2947 4.63793L28.7802 3.73509ZM29.9382 6.92309L27.4527 7.82593L27.4545 7.83095L29.9382 6.92309ZM40.8222 12.4171H38.1778V12.4174L40.8222 12.4171ZM37.5782 4.13064H33.1542V9.41953H37.5782V4.13064ZM33.1542 4.13064C33.8528 4.13064 34.4474 4.56694 34.6758 5.18746L29.7126 7.01471C30.2371 8.43923 31.5997 9.41953 33.1542 9.41953V4.13064ZM34.6799 5.19862L33.5239 2.01462L28.5525 3.81955L29.7085 7.00355L34.6799 5.19862ZM33.5252 2.0181C32.6569 -0.383826 30.3654 -1.98136 27.8222 -1.98136V3.30753C28.1471 3.30753 28.4435 3.518 28.5513 3.81607L33.5252 2.0181ZM27.8222 -1.98136H16.2282V3.30753H27.8222V-1.98136ZM16.2282 -1.98136C13.6836 -1.98136 11.3926 -0.384041 10.5265 2.01818L15.5019 3.81199C15.6078 3.51821 15.9009 3.30753 16.2282 3.30753V-1.98136ZM10.5295 2.00986L9.36953 5.19386L14.3389 7.00431L15.4989 3.82031L10.5295 2.00986ZM9.37115 5.18945C9.59924 4.56682 10.1943 4.13064 10.8942 4.13064V9.41953C12.4462 9.41953 13.8132 8.43935 14.3373 7.00873L9.37115 5.18945ZM10.8942 4.13064H6.47022V9.41953H10.8942V4.13064ZM6.47022 4.13064C1.89756 4.13064 -1.82023 7.84277 -1.82023 12.4171H3.46866C3.46866 10.7674 4.81487 9.41953 6.47022 9.41953V4.13064ZM-1.82023 12.4171V29.6971H3.46866V12.4171H-1.82023ZM-1.82023 29.6971C-1.82023 34.2708 1.89695 37.9835 6.46822 37.9835V32.6946C4.81549 32.6946 3.46866 31.3474 3.46866 29.6971H-1.82023ZM6.46822 37.9835H37.5782V32.6946H6.46822V37.9835ZM37.5782 37.9835C42.1527 37.9835 45.8667 34.2676 45.8667 29.6971H40.5778C40.5778 31.3466 39.2317 32.6946 37.5782 32.6946V37.9835ZM45.8667 29.6971V12.4171H40.5778V29.6971H45.8667ZM45.8667 12.4188C45.8696 7.84281 42.1505 4.13064 37.5782 4.13064V9.41953C39.2339 9.41953 40.5788 10.7674 40.5778 12.4154L45.8667 12.4188ZM38.1798 29.6971C38.1798 30.0234 37.9089 30.2966 37.5782 30.2966V35.5855C40.8235 35.5855 43.4687 32.9507 43.4687 29.6971H38.1798ZM37.5782 30.2966H6.47022V35.5855H37.5782V30.2966ZM6.47022 30.2966C6.13965 30.2966 5.86866 30.0235 5.86866 29.6971H0.579774C0.579774 32.9466 3.22079 35.5855 6.47022 35.5855V30.2966ZM5.86866 29.6971V12.4171H0.579774V29.6971H5.86866ZM5.86866 12.4171C5.86866 12.0908 6.13952 11.8175 6.47022 11.8175V6.52864C3.22492 6.52864 0.579774 9.16342 0.579774 12.4171H5.86866ZM6.47022 11.8175H10.8942V6.52864H6.47022V11.8175ZM10.8942 11.8175C13.4404 11.8175 15.7207 10.2161 16.5924 7.82776L11.6241 6.01441C11.5118 6.32206 11.212 6.52864 10.8942 6.52864V11.8175ZM16.5933 7.82531L17.7533 4.63731L12.7832 2.82886L11.6232 6.01686L16.5933 7.82531ZM17.7563 4.62881C17.5212 5.28206 16.911 5.70553 16.2262 5.70553V0.416642C14.6894 0.416642 13.3033 1.38411 12.7801 2.83736L17.7563 4.62881ZM16.2262 5.70553H27.8202V0.416642H16.2262V5.70553ZM27.8202 5.70553C27.1298 5.70553 26.5263 5.27569 26.2946 4.63781L31.2658 2.83236C30.7421 1.39048 29.3667 0.416642 27.8202 0.416642V5.70553ZM26.2947 4.63793L27.4527 7.82593L32.4238 6.02024L31.2658 2.83224L26.2947 4.63793ZM27.4545 7.83095C28.3269 10.2178 30.6096 11.8175 33.1522 11.8175V6.52864C32.8348 6.52864 32.5335 6.32041 32.4219 6.01522L27.4545 7.83095ZM33.1522 11.8175H37.5762V6.52864H33.1522V11.8175ZM37.5762 11.8175C37.9068 11.8175 38.1778 12.0906 38.1778 12.4171H43.4667C43.4667 9.16754 40.8256 6.52864 37.5762 6.52864V11.8175ZM38.1778 12.4174L38.1798 29.6974L43.4687 29.6968L43.4667 12.4168L38.1778 12.4174ZM22.0242 10.0586C16.0417 10.0586 11.1798 14.9206 11.1798 20.9031H16.4687C16.4687 17.8416 18.9627 15.3475 22.0242 15.3475V10.0586ZM11.1798 20.9031C11.1798 26.8856 16.0417 31.7475 22.0242 31.7475V26.4586C18.9627 26.4586 16.4687 23.9646 16.4687 20.9031H11.1798ZM22.0242 31.7475C28.0067 31.7475 32.8687 26.8856 32.8687 20.9031H27.5798C27.5798 23.9646 25.0857 26.4586 22.0242 26.4586V31.7475ZM32.8687 20.9031C32.8687 14.9206 28.0067 10.0586 22.0242 10.0586V15.3475C25.0857 15.3475 27.5798 17.8416 27.5798 20.9031H32.8687ZM22.0242 24.0586C20.2873 24.0586 18.8687 22.6392 18.8687 20.9031H13.5798C13.5798 25.559 17.3651 29.3475 22.0242 29.3475V24.0586ZM18.8687 20.9031C18.8687 19.1676 20.2887 17.7475 22.0242 17.7475V12.4586C17.3677 12.4586 13.5798 16.2466 13.5798 20.9031H18.8687ZM22.0242 17.7475C23.7597 17.7475 25.1798 19.1676 25.1798 20.9031H30.4687C30.4687 16.2466 26.6807 12.4586 22.0242 12.4586V17.7475ZM25.1798 20.9031C25.1798 22.6392 23.7611 24.0586 22.0242 24.0586V29.3475C26.6833 29.3475 30.4687 25.559 30.4687 20.9031H25.1798Z" fill="#A585C1" mask="url(#path-1-inside-1_5752_5457)"/>
</svg>
