<svg width="22" height="22" viewBox="0 0 22 22" fill="none" xmlns="http://www.w3.org/2000/svg">
<path d="M20.75 10.4584C20.7537 11.8882 20.4197 13.2987 19.775 14.575C19.0106 16.1044 17.8356 17.3908 16.3814 18.2901C14.9272 19.1894 13.2514 19.666 11.5417 19.6667C10.1118 19.6704 8.70129 19.3364 7.425 18.6917L1.25 20.75L3.30833 14.575C2.66368 13.2987 2.32961 11.8882 2.33333 10.4584C2.33399 8.7486 2.81066 7.07279 3.70995 5.61863C4.60923 4.16447 5.89561 2.9894 7.425 2.22503C8.70129 1.58037 10.1118 1.2463 11.5417 1.25003H12.0833C14.3414 1.37461 16.4741 2.32769 18.0732 3.92679C19.6723 5.5259 20.6254 7.65865 20.75 9.9167V10.4584Z" stroke="#3C3C3C" stroke-width="2" stroke-linecap="round" stroke-linejoin="round"/>
</svg>
