<svg width="9" height="6" viewBox="0 0 9 6" fill="none" xmlns="http://www.w3.org/2000/svg">
<path d="M0.19926 3.15434C0.0892117 3.04429 0.0892116 2.86587 0.19926 2.75582C0.309308 2.64577 0.487731 2.64577 0.597779 2.75582L2.77103 4.92907L2.37251 5.32759L0.19926 3.15434Z" fill="#A585C1"/>
<path d="M7.10933 0.597697C7.21938 0.487649 7.21938 0.309226 7.10933 0.199178C6.99929 0.0891299 6.82086 0.0891299 6.71082 0.199178L1.9806 4.9294L2.37911 5.32792L7.10933 0.597697Z" fill="#A585C1"/>
<path d="M2.05278 3.31742C1.94273 3.20738 1.94273 3.02895 2.05278 2.9189C2.16282 2.80886 2.34125 2.80886 2.45129 2.9189L4.46189 4.9295L4.06337 5.32802L2.05278 3.31742Z" fill="#A585C1"/>
<path d="M8.80074 0.597697C8.91079 0.487649 8.91079 0.309226 8.80074 0.199178C8.69069 0.0891299 8.51227 0.0891299 8.40222 0.199178L3.672 4.9294L4.07052 5.32792L8.80074 0.597697Z" fill="#A585C1"/>
</svg>
