<svg width="49" height="49" viewBox="0 0 49 49" fill="none" xmlns="http://www.w3.org/2000/svg">
<g clip-path="url(#clip0_5754_3362)">
<path d="M42.3658 0.912109H6.30003C2.98498 0.912109 0.289062 3.60803 0.289062 6.92307V42.9889C0.289062 46.3039 2.98498 48.9998 6.30003 48.9998H42.3658C45.6809 48.9998 48.3768 46.3039 48.3768 42.9889V6.92307C48.3768 3.60803 45.6809 0.912109 42.3658 0.912109Z" fill="#1976D2"/>
<path fill-rule="evenodd" clip-rule="evenodd" d="M40.8575 24.9561H33.3438V18.9452C33.3438 17.2861 34.6903 17.4424 36.3493 17.4424H39.3548V9.92871H33.3438C30.9525 9.92871 28.6591 10.8787 26.9682 12.5696C25.2773 14.2605 24.3274 16.5538 24.3274 18.9452V24.9561H18.3164V32.4698H24.3274V49H33.3438V32.4698H37.852L40.8575 24.9561Z" fill="#FAFAFA"/>
</g>
<defs>
<clipPath id="clip0_5754_3362">
<rect width="48.0877" height="48.0877" fill="white" transform="translate(0.285156 0.912109)"/>
</clipPath>
</defs>
</svg>
