<svg width="253" height="75" viewBox="0 0 253 75" fill="none" xmlns="http://www.w3.org/2000/svg">
<path fill-rule="evenodd" clip-rule="evenodd" d="M243.522 74.6234H9.36979C4.2057 74.6234 0 70.4178 0 65.2954V9.32793C0 4.18709 4.2057 0 9.36979 0H243.522C248.681 0 252.892 4.18709 252.892 9.32793V65.2954C252.892 70.4178 248.681 74.6234 243.522 74.6234Z" fill="black"/>
<path fill-rule="evenodd" clip-rule="evenodd" d="M243.522 1.49339C247.853 1.49339 251.398 5.01522 251.398 9.32793V65.2954C251.398 69.6083 247.876 73.13 243.522 73.13H9.36979C5.03847 73.13 1.4934 69.6083 1.4934 65.2954V9.32793C1.4934 5.01522 5.01521 1.49339 9.36979 1.49339H243.522ZM243.522 0H9.36979C4.2057 0 0 4.2057 0 9.32793V65.2954C0 70.4363 4.2057 74.6234 9.36979 74.6234H243.522C248.681 74.6234 252.892 70.4363 252.892 65.2954V9.32793C252.892 4.2057 248.681 0 243.522 0Z" fill="#A6A6A6"/>
<path d="M133.222 24.6855C131.533 24.6855 130.109 24.0947 128.983 22.9316C127.867 21.8012 127.243 20.2425 127.271 18.6515C127.271 16.9534 127.848 15.5158 128.983 14.376C130.104 13.2129 131.528 12.6221 133.217 12.6221C134.887 12.6221 136.311 13.2129 137.455 14.376C138.59 15.5531 139.167 16.9906 139.167 18.6515C139.149 20.3543 138.572 21.7918 137.455 22.927C136.334 24.0993 134.91 24.6855 133.222 24.6855ZM82.9718 24.6855C81.3201 24.6855 79.8872 24.1041 78.7149 22.9549C77.5518 21.8104 76.9609 20.3635 76.9609 18.6562C76.9609 16.9487 77.5518 15.5019 78.7149 14.3574C79.864 13.2083 81.2969 12.6267 82.9718 12.6267C83.7905 12.6267 84.5862 12.7896 85.3492 13.1199C86.0982 13.4409 86.7076 13.8782 87.1589 14.4132L87.2705 14.5481L86.0097 15.7857L85.8795 15.6321C85.1677 14.7854 84.214 14.3714 82.9533 14.3714C81.8273 14.3714 80.8457 14.7715 80.0362 15.5624C79.2221 16.3579 78.808 17.4 78.808 18.6608C78.808 19.9216 79.2221 20.9638 80.0362 21.7593C80.8457 22.5502 81.8273 22.9503 82.9533 22.9503C84.1535 22.9503 85.1631 22.5502 85.9492 21.7593C86.4145 21.294 86.703 20.6427 86.8052 19.8192H82.7624V18.0793H88.5406L88.5638 18.2374C88.6057 18.5305 88.6477 18.8329 88.6477 19.1121C88.6477 20.7171 88.1638 22.015 87.2054 22.9735C86.1167 24.1087 84.693 24.6855 82.9718 24.6855ZM149.784 24.4389H148.002L142.545 15.7066L142.591 17.2791V24.4343H140.81V12.8733H142.843L142.898 12.9617L148.03 21.187L147.983 19.6192V12.8733H149.784V24.4389ZM119.832 24.4389H118.027V14.6133H114.896V12.8733H122.959V14.6133H119.827V24.4389H119.832ZM113.426 24.4389H111.626V12.8733H113.426V24.4389ZM103.307 24.4389H101.507V14.6133H98.3757V12.8733H106.438V14.6133H103.307V24.4389ZM97.2358 24.4204H90.3317V12.8733H97.2358V14.6133H92.1368V17.7862H96.738V19.5075H92.1368V22.6804H97.2358V24.4204ZM130.305 21.7359C131.109 22.5408 132.086 22.9455 133.222 22.9455C134.389 22.9455 135.343 22.5502 136.139 21.7359C136.929 20.9452 137.33 19.9076 137.33 18.6562C137.33 17.4047 136.929 16.3625 136.143 15.5763C135.338 14.7715 134.357 14.3667 133.226 14.3667C132.058 14.3667 131.105 14.7622 130.314 15.5763C129.523 16.3672 129.123 17.4047 129.123 18.6562C129.123 19.9076 129.518 20.9498 130.305 21.7359Z" fill="white"/>
<path fill-rule="evenodd" clip-rule="evenodd" d="M127.106 40.5867C122.709 40.5867 119.146 43.9226 119.146 48.5237C119.146 53.0829 122.732 56.4605 127.106 56.4605C131.502 56.4605 135.066 53.1015 135.066 48.5237C135.066 43.9226 131.502 40.5867 127.106 40.5867ZM127.106 53.3156C124.7 53.3156 122.63 51.3244 122.63 48.5052C122.63 45.644 124.705 43.6945 127.106 43.6945C129.511 43.6945 131.581 45.644 131.581 48.5052C131.586 51.343 129.511 53.3156 127.106 53.3156ZM109.739 40.5867C105.342 40.5867 101.778 43.9226 101.778 48.5237C101.778 53.0829 105.365 56.4605 109.739 56.4605C114.135 56.4605 117.699 53.1015 117.699 48.5237C117.699 43.9226 114.13 40.5867 109.739 40.5867ZM109.739 53.3156C107.333 53.3156 105.263 51.3244 105.263 48.5052C105.263 45.644 107.338 43.6945 109.739 43.6945C112.144 43.6945 114.214 45.644 114.214 48.5052C114.214 51.343 112.144 53.3156 109.739 53.3156ZM89.0728 43.0106V46.3696H97.1354C96.8888 48.254 96.2654 49.6449 95.3118 50.5986C94.1301 51.7803 92.3062 53.0644 89.0916 53.0644C84.1368 53.0644 80.2615 49.0634 80.2615 44.1087C80.2615 39.1539 84.1368 35.1529 89.0916 35.1529C91.7667 35.1529 93.7159 36.209 95.1628 37.5582L97.5447 35.1761C95.535 33.2502 92.8599 31.7754 89.1102 31.7754C82.3132 31.7754 76.6094 37.3116 76.6094 44.0901C76.6094 50.8871 82.3084 56.4048 89.1102 56.4048C92.7808 56.4048 95.535 55.2045 97.7123 52.9434C99.9315 50.7242 100.634 47.5932 100.634 45.0671C100.634 44.2808 100.573 43.5737 100.448 42.9735H89.0682C89.0728 42.9689 89.0728 43.0106 89.0728 43.0106ZM173.601 45.6254C172.936 43.8435 170.926 40.5682 166.804 40.5682C162.719 40.5682 159.323 43.783 159.323 48.5052C159.323 52.9619 162.682 56.4419 167.2 56.4419C170.828 56.4419 172.94 54.2229 173.81 52.9202L171.117 51.1151C170.223 52.441 168.981 53.311 167.218 53.311C165.436 53.311 164.189 52.5015 163.361 50.9057L173.973 46.5092C173.973 46.514 173.601 45.6254 173.601 45.6254ZM162.78 48.2771C162.696 45.2113 165.162 43.6528 166.925 43.6528C168.316 43.6528 169.474 44.3367 169.87 45.3323L162.78 48.2771ZM154.159 55.9675H157.644V32.65H154.159V55.9675ZM148.437 42.3501H148.311C147.525 41.415 146.031 40.5682 144.124 40.5682C140.165 40.5682 136.517 44.0527 136.517 48.5283C136.517 52.9853 140.146 56.4279 144.124 56.4279C146.008 56.4279 147.525 55.5767 148.311 54.6229H148.437V55.7628C148.437 58.7913 146.818 60.4243 144.208 60.4243C142.072 60.4243 140.746 58.8892 140.207 57.605L137.178 58.8704C138.048 60.964 140.37 63.5554 144.203 63.5554C148.288 63.5554 151.749 61.1501 151.749 55.2836V41.0428H148.455V42.3501C148.46 42.3501 148.437 42.3501 148.437 42.3501ZM144.436 53.3156C142.03 53.3156 140.02 51.3058 140.02 48.5283C140.02 45.7276 142.03 43.6993 144.436 43.6993C146.818 43.6993 148.665 45.751 148.665 48.5283C148.688 51.3058 146.822 53.3156 144.436 53.3156ZM189.917 32.65H181.585V55.9675H185.069V47.1374H189.921C193.778 47.1374 197.57 44.3413 197.57 39.9028C197.57 35.4646 193.792 32.65 189.917 32.65ZM190.019 43.8806H185.064V35.8788H190.019C192.629 35.8788 194.104 38.0327 194.104 39.8797C194.104 41.7081 192.61 43.8806 190.019 43.8806ZM211.536 40.545C209.005 40.545 206.395 41.6662 205.316 44.1087L208.405 45.3928C209.07 44.1087 210.288 43.6714 211.578 43.6714C213.382 43.6714 215.206 44.7506 215.25 46.6767V46.9233C214.626 46.5697 213.257 46.0302 211.62 46.0302C208.284 46.0302 204.902 47.8538 204.902 51.2733C204.902 54.4042 207.638 56.414 210.685 56.414C213.026 56.414 214.313 55.3581 215.118 54.1345H215.243V55.9395H218.602V47.007C218.602 42.8479 215.515 40.545 211.536 40.545ZM211.098 53.3156C209.959 53.3156 208.363 52.7573 208.363 51.3244C208.363 49.5193 210.355 48.8354 212.053 48.8354C213.587 48.8354 214.313 49.1657 215.225 49.6217C214.974 51.7152 213.207 53.297 211.098 53.3156ZM230.857 41.0428L226.856 51.1569H226.731L222.585 41.0428H218.836L225.055 55.1812L221.511 63.0391H225.139L234.709 41.0428H230.857ZM199.491 55.9675H202.976V32.65H199.491V55.9675Z" fill="white"/>
<path fill-rule="evenodd" clip-rule="evenodd" d="M19.4647 14.0553C18.925 14.6368 18.6133 15.5254 18.6133 16.6885V57.9407C18.6133 59.1039 18.925 59.9924 19.4833 60.5507L19.6275 60.6763L42.7403 37.5635V37.0471L19.6089 13.9297L19.4647 14.0553Z" fill="url(#paint0_linear_5929_6559)"/>
<path fill-rule="evenodd" clip-rule="evenodd" d="M50.4277 45.2911L42.7188 37.5822V37.0424L50.4277 29.3335L50.5952 29.4359L59.7137 34.6186C62.3237 36.0888 62.3237 38.5173 59.7137 40.0061L50.5952 45.1887L50.4277 45.2911Z" fill="url(#paint1_linear_5929_6559)"/>
<path fill-rule="evenodd" clip-rule="evenodd" d="M50.5982 45.188L42.7219 37.3118L19.4648 60.5686C20.3161 61.4805 21.7444 61.5829 23.3403 60.6944L50.5982 45.188Z" fill="url(#paint2_linear_5929_6559)"/>
<path fill-rule="evenodd" clip-rule="evenodd" d="M50.5982 29.4357L23.3403 13.9527C21.7444 13.0408 20.3116 13.1664 19.4648 14.0783L42.7219 37.312L50.5982 29.4357Z" fill="url(#paint3_linear_5929_6559)"/>
<path opacity="0.2" fill-rule="evenodd" clip-rule="evenodd" d="M50.4317 45.021L23.3599 60.4015C21.8477 61.2715 20.4987 61.211 19.6286 60.4201L19.4844 60.5645L19.6286 60.6901C20.4987 61.4762 21.8477 61.5415 23.3599 60.6715L50.6178 45.1885L50.4317 45.021Z" fill="black"/>
<path opacity="0.12" fill-rule="evenodd" clip-rule="evenodd" d="M59.7156 39.7354L50.4062 45.0205L50.5738 45.188L59.6922 40.0054C60.9995 39.261 61.6417 38.284 61.6417 37.3118C61.5624 38.2049 60.8973 39.0516 59.7156 39.7354Z" fill="black"/>
<path opacity="0.25" fill-rule="evenodd" clip-rule="evenodd" d="M23.34 14.2221L59.7167 34.8877C60.8983 35.553 61.5637 36.423 61.6659 37.3116C61.6659 36.3394 61.0239 35.3624 59.7167 34.618L23.34 13.9523C20.7301 12.4589 18.6133 13.7057 18.6133 16.6878V16.9577C18.6133 13.9709 20.7301 12.7473 23.34 14.2221Z" fill="white"/>
<defs>
<linearGradient id="paint0_linear_5929_6559" x1="40.6671" y1="16.2435" x2="3.64441" y2="26.1081" gradientUnits="userSpaceOnUse">
<stop stop-color="#00A0FF"/>
<stop offset="0.00657" stop-color="#00A1FF"/>
<stop offset="0.2601" stop-color="#00BEFF"/>
<stop offset="0.5122" stop-color="#00D2FF"/>
<stop offset="0.7604" stop-color="#00DFFF"/>
<stop offset="1" stop-color="#00E3FF"/>
</linearGradient>
<linearGradient id="paint1_linear_5929_6559" x1="63.1173" y1="37.3124" x2="17.976" y2="37.3124" gradientUnits="userSpaceOnUse">
<stop stop-color="#FFE000"/>
<stop offset="0.4087" stop-color="#FFBD00"/>
<stop offset="0.7754" stop-color="#FFA500"/>
<stop offset="1" stop-color="#FF9C00"/>
</linearGradient>
<linearGradient id="paint2_linear_5929_6559" x1="46.3154" y1="41.5975" x2="16.5937" y2="91.6215" gradientUnits="userSpaceOnUse">
<stop stop-color="#FF3A44"/>
<stop offset="1" stop-color="#C31162"/>
</linearGradient>
<linearGradient id="paint3_linear_5929_6559" x1="13.6085" y1="0.333904" x2="26.8684" y2="22.6754" gradientUnits="userSpaceOnUse">
<stop stop-color="#32A071"/>
<stop offset="0.0685" stop-color="#2DA771"/>
<stop offset="0.4762" stop-color="#15CF74"/>
<stop offset="0.8009" stop-color="#06E775"/>
<stop offset="1" stop-color="#00F076"/>
</linearGradient>
</defs>
</svg>
