<svg width="49" height="49" viewBox="0 0 49 49" fill="none" xmlns="http://www.w3.org/2000/svg">
<g clip-path="url(#clip0_5754_3365)">
<path d="M38.1028 0.913574H11.6021C5.64101 0.913574 0.808594 5.74599 0.808594 11.7071V38.2078C0.808594 44.1689 5.64101 49.0013 11.6021 49.0013H38.1028C44.0639 49.0013 48.8963 44.1689 48.8963 38.2078V11.7071C48.8963 5.74599 44.0639 0.913574 38.1028 0.913574Z" fill="url(#paint0_linear_5754_3365)"/>
<path d="M17.4622 9.24121H32.4532C32.7863 9.40778 33.286 9.40778 33.6191 9.57434C35.081 9.81126 36.4478 10.4512 37.5659 11.4222C38.684 12.3932 39.5092 13.6568 39.9487 15.071C40.1947 15.886 40.362 16.7226 40.4484 17.5695V32.2274C40.2102 34.0851 39.5243 35.8571 38.4496 37.3909C37.5276 38.4592 36.3717 39.3004 35.0717 39.8493C33.7717 40.3982 32.3627 40.6399 30.9541 40.5557H18.4616C16.2322 40.6639 14.0402 39.953 12.2986 38.5569C11.2396 37.6419 10.4039 36.4968 9.85535 35.2092C9.30683 33.9216 9.06004 32.5256 9.13387 31.128V19.4684C9.10636 18.6321 9.16215 17.7951 9.30044 16.9699C9.46864 15.2622 10.1708 13.651 11.307 12.3652C12.4433 11.0794 13.956 10.1845 15.63 9.80754L17.4622 9.24121ZM12.2986 25.065V31.5611C12.2276 32.3883 12.3383 33.2211 12.6229 34.0011C12.9075 34.781 13.3592 35.4894 13.9462 36.0765C14.5333 36.6635 15.2417 37.1152 16.0216 37.3998C16.8016 37.6844 17.6344 37.7951 18.4616 37.7241C22.7923 37.8906 27.123 37.8906 31.4538 37.7241C35.2848 37.7241 37.4502 35.3921 37.6167 31.5611C37.7833 27.2304 37.7833 22.8997 37.6167 18.5689C37.6599 17.7482 37.53 16.9276 37.2356 16.1604C36.9411 15.3931 36.4887 14.6963 35.9076 14.1152C35.3264 13.534 34.6296 13.0816 33.8624 12.7871C33.0951 12.4927 32.2745 12.3628 31.4538 12.406C27.123 12.2394 22.7923 12.2394 18.4616 12.406C17.6344 12.335 16.8016 12.4456 16.0216 12.7302C15.2417 13.0148 14.5333 13.4665 13.9462 14.0536C13.3592 14.6407 12.9075 15.349 12.6229 16.129C12.3383 16.9089 12.2276 17.7417 12.2986 18.5689V25.065Z" fill="white"/>
<path d="M16.8633 25.1315C16.8677 22.9682 17.729 20.8948 19.2587 19.3651C20.7883 17.8354 22.8618 16.9741 25.025 16.9697C27.1763 17.0123 29.2276 17.8859 30.7491 19.4074C32.2706 20.9289 33.1442 22.9802 33.1868 25.1315C33.1824 27.2948 32.3211 29.3682 30.7914 30.8978C29.2617 32.4275 27.1883 33.2888 25.025 33.2932C22.8738 33.2506 20.8224 32.377 19.301 30.8556C17.7795 29.3341 16.9059 27.2828 16.8633 25.1315ZM25.025 19.9679C24.0133 19.9515 23.0198 20.2375 22.1717 20.7893C21.3236 21.3412 20.6596 22.1337 20.2648 23.0653C19.87 23.9969 19.7624 25.0252 19.9558 26.0184C20.1491 27.0115 20.6347 27.9244 21.3501 28.6398C22.0656 29.3553 22.9784 29.8408 23.9716 30.0342C24.9647 30.2275 25.993 30.1199 26.9247 29.7251C27.8563 29.3303 28.6488 28.6663 29.2006 27.8182C29.7525 26.9702 30.0385 25.9766 30.022 24.9649C30.022 23.6396 29.4956 22.3686 28.5584 21.4315C27.6213 20.4944 26.3503 19.9679 25.025 19.9679Z" fill="white"/>
<path d="M31.3567 16.6367C31.3474 16.3717 31.3927 16.1076 31.4898 15.8609C31.587 15.6142 31.7339 15.3901 31.9214 15.2026C32.1089 15.0151 32.333 14.8682 32.5797 14.7711C32.8264 14.6739 33.0905 14.6286 33.3555 14.6379C33.874 14.673 34.3623 14.8948 34.7298 15.2624C35.0973 15.6299 35.3192 16.1181 35.3543 16.6367C35.3543 17.1668 35.1437 17.6752 34.7688 18.0501C34.394 18.4249 33.8856 18.6355 33.3555 18.6355C32.8253 18.6355 32.3169 18.4249 31.9421 18.0501C31.5672 17.6752 31.3567 17.1668 31.3567 16.6367Z" fill="white"/>
</g>
<defs>
<linearGradient id="paint0_linear_5754_3365" x1="-2.25623" y1="51.6664" x2="54.3763" y2="-4.13339" gradientUnits="userSpaceOnUse">
<stop stop-color="#FED576"/>
<stop offset="0.26" stop-color="#F47133"/>
<stop offset="0.61" stop-color="#BC3081"/>
<stop offset="1" stop-color="#4C63D2"/>
</linearGradient>
<clipPath id="clip0_5754_3365">
<rect width="48.0877" height="48.0877" fill="white" transform="translate(0.808594 0.912109)"/>
</clipPath>
</defs>
</svg>
