<svg width="152" height="152" viewBox="0 0 152 152" fill="none" xmlns="http://www.w3.org/2000/svg">
<path d="M117.204 30.0574H56.4094L53.6582 117.835H119.976L118.59 73.9462L117.204 30.0574ZM101.773 51.082C101.266 51.6135 100.658 52.0348 99.9856 52.3203C99.3135 52.6058 98.5914 52.7496 97.8631 52.7429H75.7503C74.6546 52.7329 73.5861 52.3943 72.679 51.7696C71.7718 51.1448 71.0663 50.2618 70.651 49.2311C70.2357 48.2005 70.129 47.0681 70.3443 45.9761C70.5596 44.8841 71.0874 43.881 71.8614 43.0926C72.3653 42.5627 72.9698 42.1423 73.6383 41.8568C74.3067 41.5713 75.0252 41.4267 75.7503 41.4317H97.8631C98.9606 41.4376 100.032 41.7732 100.942 42.3963C101.852 43.0195 102.561 43.9024 102.979 44.9338C103.397 45.9653 103.505 47.0994 103.291 48.1933C103.076 49.2873 102.548 50.2923 101.773 51.082Z" fill="#D4AAFA"/>
<path d="M66.3177 30.0574H56.4094L53.6582 117.814H119.976L119.355 98.3873C104.672 93.9287 91.699 84.9743 82.2071 72.7456C72.7152 60.5169 67.1664 45.6096 66.3177 30.0574Z" fill="#A585C1"/>
<path d="M84.2528 139.385H12.4121L15.184 48.7903H81.5016L84.2528 139.385Z" fill="#E2CBF9"/>
<path d="M22.9203 51.8599V48.7903H15.184L12.4121 139.385H84.2735L83.7977 124.29C66.6049 122.075 50.8414 113.427 39.5848 100.035C28.3281 86.642 22.3866 69.4659 22.9203 51.8599Z" fill="#C5AFDA"/>
<path d="M72.2929 60.5427C73.2557 59.0184 72.4074 56.7199 70.3981 55.4088C68.3889 54.0977 65.9796 54.2706 65.0168 55.7949C64.054 57.3192 64.9023 59.6178 66.9115 60.9288C68.9208 62.2399 71.3301 62.067 72.2929 60.5427Z" fill="#FEF2DD"/>
<path d="M77.8527 63.6727C78.3849 62.8195 77.9089 61.5433 76.7896 60.8221C75.6703 60.101 74.3316 60.2081 73.7994 61.0613C73.2673 61.9145 73.7433 63.1908 74.8626 63.9119C75.9819 64.6331 77.3206 64.526 77.8527 63.6727Z" fill="#FEF2DD"/>
<path d="M95.5453 119.937H122.043L119.21 27.9549H54.4019L53.7813 46.6878H29.4138V50.8927H79.4934L82.1204 137.283H14.4789L17.1887 50.8927H24.8216V46.6878H13.1757L10.3418 141.488H86.4644L85.8024 119.937H91.2014V115.733H85.6163L83.7546 54.7612H97.8621C98.8627 54.7694 99.8546 54.5726 100.779 54.1824C101.703 53.7923 102.54 53.2169 103.24 52.4906C104.297 51.403 105.016 50.023 105.305 48.523C105.595 47.0229 105.444 45.4694 104.87 44.0563C104.296 42.6432 103.326 41.4333 102.079 40.5776C100.833 39.7219 99.3661 39.2585 97.8621 39.2451H95.3385V43.45H97.8621C98.5511 43.464 99.2208 43.6833 99.7882 44.0809C100.356 44.4785 100.795 45.0367 101.053 45.6862C101.311 46.3358 101.375 47.048 101.238 47.7344C101.101 48.4208 100.769 49.0512 100.282 49.5471C99.9675 49.8737 99.5906 50.1316 99.1744 50.3051C98.7583 50.4786 98.3118 50.5641 97.8621 50.5563H83.6305L83.5064 46.6458H72.3983C72.4927 45.8487 72.85 45.1076 73.4118 44.5433C73.7235 44.2184 74.0969 43.9613 74.5095 43.7878C74.922 43.6143 75.365 43.528 75.8114 43.5341H90.9324V39.3292H75.7493C74.7444 39.3074 73.7457 39.4938 72.814 39.8769C71.8822 40.26 71.037 40.832 70.3297 41.5578C69.0404 42.9494 68.3035 44.7768 68.2612 46.6878H57.9184L58.4149 32.1598H115.197L117.906 115.733H95.5453V119.937Z" fill="#202C35"/>
<path d="M32.4551 60.1015V68.5113C32.4551 72.7938 34.1288 76.9008 37.1081 79.9289C40.0874 82.957 44.1282 84.6582 48.3415 84.6582C52.5549 84.6582 56.5957 82.957 59.575 79.9289C62.5542 76.9008 64.228 72.7938 64.228 68.5113V60.1015H60.0909V68.5113C60.0909 71.6785 58.853 74.716 56.6496 76.9556C54.4461 79.1951 51.4577 80.4533 48.3415 80.4533C45.2254 80.4533 42.2369 79.1951 40.0335 76.9556C37.8301 74.716 36.5922 71.6785 36.5922 68.5113V60.1015H32.4551Z" fill="#202C35"/>
<path d="M100.947 22.5292C100.604 22.5291 100.274 22.4101 100.02 22.1955C99.7667 21.9809 99.6078 21.686 99.5748 21.3683C99.5417 21.0505 99.6368 20.7327 99.8416 20.4767C100.046 20.2207 100.346 20.0449 100.682 19.9835C107.308 18.7689 109.831 15.7829 111.064 7.69532C111.088 7.52689 111.148 7.36451 111.239 7.21759C111.331 7.07066 111.452 6.94211 111.598 6.83936C111.743 6.73661 111.908 6.66171 112.085 6.61899C112.261 6.57627 112.445 6.56658 112.626 6.59047C112.806 6.61437 112.98 6.67138 113.137 6.75821C113.293 6.84504 113.43 6.95996 113.539 7.09633C113.647 7.23269 113.726 7.38779 113.77 7.55265C113.814 7.71751 113.823 7.88886 113.795 8.05678C112.407 17.162 108.996 21.0773 101.214 22.5043C101.126 22.5208 101.037 22.5292 100.947 22.5292Z" fill="#222222"/>
<path d="M123.911 22.5292C123.821 22.5292 123.731 22.5208 123.643 22.5043C115.862 21.0773 112.453 17.162 111.064 8.05678C111.037 7.88886 111.045 7.71751 111.089 7.55265C111.133 7.38779 111.212 7.23269 111.321 7.09633C111.429 6.95996 111.566 6.84504 111.723 6.75821C111.879 6.67138 112.053 6.61437 112.234 6.59047C112.414 6.56658 112.598 6.57627 112.774 6.61899C112.951 6.66171 113.116 6.73661 113.262 6.83936C113.407 6.94211 113.529 7.07066 113.62 7.21759C113.712 7.36451 113.771 7.52689 113.795 7.69532C115.028 15.7829 117.551 18.768 124.177 19.9835C124.513 20.0449 124.813 20.2207 125.018 20.4767C125.222 20.7327 125.318 21.0505 125.285 21.3683C125.251 21.686 125.093 21.9809 124.839 22.1955C124.585 22.4101 124.255 22.5291 123.912 22.5292H123.911ZM112.428 35.8975C112.096 35.897 111.775 35.7852 111.525 35.5824C111.275 35.3796 111.111 35.0994 111.064 34.7934C109.831 26.7066 107.308 23.7198 100.681 22.5043C100.501 22.4741 100.329 22.4107 100.176 22.318C100.022 22.2253 99.89 22.105 99.7869 21.9642C99.6837 21.8234 99.6117 21.6649 99.575 21.4979C99.5382 21.3309 99.5375 21.1587 99.5729 20.9915C99.6083 20.8242 99.679 20.6652 99.781 20.5237C99.883 20.3821 100.014 20.2609 100.167 20.1671C100.32 20.0733 100.491 20.0087 100.671 19.9772C100.851 19.9457 101.035 19.9478 101.214 19.9835C108.996 21.4114 112.406 25.3267 113.794 34.4319C113.845 34.7692 113.751 35.1118 113.531 35.3842C113.312 35.6567 112.985 35.8367 112.623 35.8846C112.558 35.893 112.493 35.8973 112.428 35.8975Z" fill="#222222"/>
<path d="M112.432 35.8983C112.366 35.8982 112.301 35.8939 112.236 35.8855C112.056 35.8618 111.884 35.8053 111.728 35.7194C111.572 35.6335 111.436 35.5198 111.327 35.3848C111.218 35.2498 111.139 35.0962 111.094 34.9327C111.049 34.7692 111.039 34.599 111.065 34.4319C112.453 25.3267 115.863 21.4122 123.644 19.9835C123.823 19.9478 124.008 19.9457 124.188 19.9772C124.367 20.0088 124.539 20.0733 124.692 20.1671C124.844 20.2609 124.976 20.3821 125.078 20.5237C125.18 20.6652 125.25 20.8242 125.286 20.9915C125.321 21.1587 125.32 21.3309 125.284 21.4979C125.247 21.6649 125.175 21.8234 125.072 21.9642C124.969 22.105 124.836 22.2253 124.683 22.318C124.529 22.4108 124.357 22.4741 124.177 22.5044C117.552 23.7207 115.029 26.7066 113.795 34.7934C113.749 35.0996 113.585 35.3799 113.335 35.5829C113.084 35.7859 112.764 35.8979 112.432 35.8983ZM123.578 37.8196C123.236 37.8184 122.907 37.699 122.654 37.4845C122.402 37.27 122.243 36.9757 122.21 36.6587C122.177 36.3417 122.272 36.0246 122.476 35.7689C122.68 35.5132 122.978 35.3371 123.313 35.2748C128.311 34.3582 130.217 32.0909 131.153 25.946C131.208 25.6115 131.403 25.3107 131.694 25.1089C131.986 24.9071 132.351 24.8206 132.711 24.8682C133.07 24.9158 133.395 25.0936 133.615 25.3631C133.834 25.6326 133.931 25.972 133.884 26.3075C132.781 33.542 130.059 36.6564 123.846 37.7956C123.758 37.8118 123.668 37.8199 123.578 37.8196Z" fill="#222222"/>
<path d="M141.46 37.8196C141.37 37.8198 141.28 37.8118 141.192 37.7956C134.979 36.6564 132.257 33.5428 131.154 26.3075C131.107 25.9719 131.204 25.6326 131.423 25.3631C131.643 25.0936 131.968 24.9158 132.328 24.8682C132.687 24.8206 133.052 24.9071 133.344 25.1089C133.635 25.3107 133.83 25.6115 133.885 25.946C134.822 32.0909 136.728 34.3574 141.725 35.2739C142.061 35.3353 142.361 35.5111 142.566 35.7671C142.77 36.0231 142.865 36.3409 142.832 36.6587C142.799 36.9764 142.64 37.2713 142.387 37.4859C142.133 37.7006 141.803 37.8195 141.46 37.8196ZM132.519 48.2285C132.186 48.2282 131.866 48.1163 131.615 47.9133C131.364 47.7103 131.201 47.4299 131.154 47.1235C130.216 40.9794 128.312 38.7121 123.314 37.7956C123.134 37.7654 122.962 37.702 122.809 37.6093C122.655 37.5166 122.523 37.3963 122.42 37.2555C122.317 37.1147 122.245 36.9562 122.208 36.7891C122.171 36.6221 122.17 36.45 122.206 36.2827C122.241 36.1155 122.312 35.9565 122.414 35.8149C122.516 35.6734 122.647 35.5522 122.8 35.4584C122.953 35.3646 123.124 35.3 123.304 35.2685C123.484 35.237 123.668 35.2391 123.847 35.2748C130.062 36.414 132.783 39.5284 133.887 46.7629C133.912 46.9301 133.902 47.1003 133.857 47.2638C133.811 47.4273 133.732 47.5809 133.623 47.7158C133.514 47.8507 133.378 47.9643 133.222 48.0501C133.066 48.1358 132.893 48.1921 132.713 48.2156C132.649 48.224 132.584 48.2283 132.519 48.2285Z" fill="#222222"/>
<path d="M132.522 48.2284C132.457 48.2283 132.391 48.224 132.326 48.2156C132.147 48.192 131.974 48.1356 131.818 48.0498C131.662 47.964 131.526 47.8504 131.417 47.7155C131.308 47.5806 131.229 47.427 131.184 47.2636C131.139 47.1001 131.129 46.93 131.154 46.7629C132.257 39.5275 134.979 36.4139 141.192 35.2747C141.548 35.2149 141.915 35.2879 142.214 35.4779C142.513 35.668 142.719 35.9599 142.789 36.2907C142.859 36.6215 142.787 36.9647 142.588 37.2462C142.389 37.5277 142.079 37.725 141.725 37.7956C136.727 38.7121 134.822 40.9794 133.885 47.1235C133.839 47.4297 133.676 47.71 133.425 47.913C133.175 48.116 132.854 48.228 132.522 48.2284ZM132.255 16.7414C131.912 16.7415 131.581 16.6227 131.327 16.4082C131.074 16.1936 130.915 15.8987 130.881 15.5809C130.848 15.2631 130.943 14.9452 131.148 14.6891C131.353 14.433 131.653 14.2571 131.989 14.1957C135.129 13.6201 136.27 12.2462 136.87 8.31372C136.893 8.14529 136.953 7.98292 137.044 7.83599C137.136 7.68907 137.258 7.56052 137.403 7.45777C137.548 7.35502 137.714 7.28012 137.89 7.2374C138.067 7.19468 138.25 7.18499 138.431 7.20888C138.611 7.23278 138.785 7.28979 138.942 7.37662C139.099 7.46345 139.235 7.57837 139.344 7.71473C139.453 7.8511 139.531 8.0062 139.575 8.17106C139.619 8.33592 139.628 8.50727 139.6 8.67519C138.966 12.8398 137.519 15.8017 132.522 16.7174C132.434 16.7335 132.344 16.7416 132.255 16.7414Z" fill="#222222"/>
<path d="M144.215 16.7414C144.125 16.7416 144.035 16.7336 143.947 16.7174C138.952 15.8009 137.505 12.8398 136.869 8.67437C136.84 8.50589 136.847 8.33376 136.891 8.16802C136.934 8.00227 137.012 7.84624 137.121 7.70902C137.23 7.57181 137.367 7.45615 137.524 7.3688C137.682 7.28146 137.856 7.22417 138.037 7.20028C138.219 7.17639 138.403 7.18638 138.58 7.22967C138.757 7.27296 138.924 7.34868 139.069 7.45241C139.214 7.55614 139.336 7.6858 139.427 7.83384C139.518 7.98187 139.577 8.14531 139.599 8.31462C140.199 12.2462 141.34 13.6201 144.481 14.1957C144.817 14.2571 145.117 14.433 145.322 14.6891C145.526 14.9452 145.621 15.2631 145.588 15.5809C145.555 15.8988 145.396 16.1937 145.142 16.4082C144.888 16.6228 144.558 16.7415 144.215 16.7414ZM138.232 23.7044C137.9 23.7039 137.579 23.5919 137.329 23.389C137.078 23.186 136.915 22.9056 136.869 22.5994C136.269 18.6678 135.128 17.2922 131.988 16.7174C131.629 16.6516 131.313 16.4555 131.109 16.1725C130.905 15.8895 130.83 15.5426 130.901 15.2082C130.972 14.8738 131.182 14.5793 131.486 14.3894C131.79 14.1995 132.162 14.1299 132.521 14.1957C137.518 15.1123 138.964 18.0742 139.6 22.2388C139.625 22.4059 139.615 22.576 139.57 22.7395C139.525 22.903 139.446 23.0565 139.337 23.1914C139.228 23.3263 139.092 23.4399 138.936 23.5257C138.78 23.6116 138.607 23.6679 138.428 23.6915C138.363 23.6999 138.297 23.7042 138.232 23.7044Z" fill="#222222"/>
<path d="M138.236 23.7044C138.171 23.7042 138.105 23.6999 138.04 23.6915C137.678 23.6436 137.352 23.4636 137.132 23.1911C136.912 22.9187 136.818 22.5761 136.869 22.2388C137.505 18.0742 138.952 15.1122 143.948 14.1957C144.127 14.1601 144.312 14.1579 144.492 14.1895C144.672 14.221 144.843 14.2855 144.996 14.3793C145.148 14.4732 145.28 14.5944 145.382 14.7359C145.484 14.8774 145.554 15.0364 145.59 15.2037C145.625 15.371 145.624 15.5431 145.588 15.7101C145.551 15.8771 145.479 16.0356 145.376 16.1764C145.273 16.3172 145.14 16.4375 144.987 16.5302C144.833 16.623 144.662 16.6863 144.481 16.7166C141.341 17.2922 140.201 18.6678 139.6 22.5994C139.553 22.9056 139.39 23.186 139.139 23.3889C138.889 23.5919 138.568 23.7039 138.236 23.7044Z" fill="#222222"/>
</svg>
