<svg width="28" height="30" viewBox="0 0 28 30" fill="none" xmlns="http://www.w3.org/2000/svg">
<path d="M7 2.50003L3.5 7.50003V25C3.5 25.6631 3.74583 26.299 4.18342 26.7678C4.621 27.2366 5.21449 27.5 5.83333 27.5H22.1667C22.7855 27.5 23.379 27.2366 23.8166 26.7678C24.2542 26.299 24.5 25.6631 24.5 25V7.50003L21 2.50003H7Z" stroke="#3C3C3C" stroke-width="2" stroke-linecap="round" stroke-linejoin="round"/>
<path d="M3.5 7.5H24.5" stroke="#3C3C3C" stroke-width="2" stroke-linecap="round" stroke-linejoin="round"/>
<path d="M18.6667 12.5C18.6667 13.8261 18.175 15.0978 17.2998 16.0355C16.4247 16.9732 15.2377 17.5 14 17.5C12.7623 17.5 11.5753 16.9732 10.7002 16.0355C9.82501 15.0978 9.33334 13.8261 9.33334 12.5" stroke="#3C3C3C" stroke-width="2" stroke-linecap="round" stroke-linejoin="round"/>
</svg>
