<svg width="49" height="49" viewBox="0 0 49 49" fill="none" xmlns="http://www.w3.org/2000/svg">
<g clip-path="url(#clip0_5754_3373)">
<path d="M38.0637 0.913574H11.563C5.60195 0.913574 0.769531 5.74599 0.769531 11.7071V38.2078C0.769531 44.1689 5.60195 49.0013 11.563 49.0013H38.0637C44.0248 49.0013 48.8573 44.1689 48.8573 38.2078V11.7071C48.8573 5.74599 44.0248 0.913574 38.0637 0.913574Z" fill="#FFFC00"/>
<path d="M38.8004 32.0284V31.9118C38.507 31.7932 38.1988 31.7147 37.8843 31.6786C36.3834 31.1496 35.0655 30.2016 34.0866 28.9469C33.5191 28.2794 33.0939 27.5028 32.8374 26.665C32.7214 26.3706 32.7214 26.0432 32.8374 25.7489C33.1721 25.3157 33.6616 25.0291 34.2032 24.9493C34.8019 24.7307 35.3636 24.4218 35.8689 24.0332C35.9855 23.9166 35.9855 23.8 36.1021 23.6834V23.5668C36.1549 23.5038 36.1839 23.4242 36.1839 23.342C36.1839 23.2597 36.1549 23.1801 36.1021 23.1171C36.0557 22.9866 35.9807 22.868 35.8828 22.7701C35.7848 22.6721 35.6663 22.5972 35.5357 22.5508C35.3866 22.4477 35.2142 22.3831 35.034 22.3627C34.8539 22.3424 34.6714 22.3669 34.503 22.4342C34.2096 22.5528 33.9014 22.6313 33.5869 22.6674H33.4703C33.1348 22.7768 32.7732 22.7768 32.4376 22.6674V22.4342C32.4229 21.788 32.4619 21.1417 32.5542 20.502C32.57 19.4402 32.5311 18.3784 32.4376 17.3206C32.0329 15.5539 30.9734 14.0063 29.4727 12.9899C28.4107 12.2883 27.1922 11.8592 25.9249 11.7406C25.5165 11.6404 25.0955 11.6011 24.6756 11.624C22.8995 11.5948 21.1685 12.1836 19.7786 13.2897C18.7888 14.1148 17.9878 15.143 17.43 16.3045V16.4211C17.0263 17.6325 16.9067 18.9205 17.0802 20.1855C17.137 21.0174 17.137 21.8522 17.0802 22.684C16.6715 22.7977 16.2396 22.7977 15.8309 22.684H15.7643C15.4498 22.6479 15.1417 22.5695 14.8482 22.4508C14.6891 22.3989 14.5185 22.3932 14.3563 22.4345C14.1941 22.4758 14.047 22.5623 13.9321 22.684H13.8488C13.7322 22.8006 13.3991 23.0338 13.3991 23.367V23.4836C13.4449 23.7078 13.5689 23.9085 13.7489 24.0499C13.8655 24.1665 13.982 24.1665 14.0986 24.2831C14.6889 24.6645 15.3436 24.9354 16.0308 25.0826C16.3806 25.3158 16.8303 25.5323 16.8303 25.8821C16.8829 26.1398 16.8788 26.4058 16.8184 26.6618C16.758 26.9178 16.6427 27.1575 16.4805 27.3646C15.8192 28.715 14.8422 29.8863 13.6323 30.7792C12.958 31.2153 12.2302 31.5625 11.4669 31.8119H11.3503C11.2112 31.8345 11.0784 31.8862 10.9607 31.9637C10.843 32.0412 10.7431 32.1427 10.6674 32.2616H10.5508C10.5508 32.4948 10.5508 32.8279 10.6674 32.9445C10.784 33.0611 10.9006 33.1777 11.0172 33.1777C11.6621 33.5064 12.3527 33.7366 13.0659 33.8606C13.5157 33.9772 13.982 34.0938 14.3152 34.2104C14.329 34.3339 14.3687 34.4531 14.4318 34.5602C14.5484 34.91 14.665 35.3597 14.7816 35.8095C14.7816 35.9261 14.8982 35.9261 15.0148 36.0427C15.1723 36.0455 15.3257 35.9924 15.4478 35.8928H15.5644C16.5782 35.6847 17.6193 35.6453 18.6459 35.7762C19.6824 36.2408 20.6748 36.7983 21.6108 37.4418C22.3014 37.979 23.1365 38.298 24.0093 38.3579H26.0581C26.5762 38.239 27.0752 38.0484 27.5406 37.7916H27.6572C28.5793 37.0775 29.56 36.4423 30.5887 35.8928H30.7553C31.1228 35.7861 31.5065 35.7466 31.8879 35.7762C32.761 35.699 33.6403 35.7382 34.503 35.8928H34.6196C34.6802 35.8888 34.7373 35.863 34.7802 35.8201C34.8231 35.7772 34.8489 35.7201 34.8528 35.6596C34.8837 35.6596 34.9134 35.6473 34.9353 35.6254C34.9571 35.6035 34.9694 35.5739 34.9694 35.543C34.9694 35.4264 35.086 35.4264 34.9694 35.4264H35.086C35.1267 34.9784 35.2815 34.5483 35.5357 34.1771C35.6898 34.033 35.8912 33.9501 36.1021 33.9439C36.802 33.8231 37.4882 33.6334 38.1508 33.3776C38.4893 33.2484 38.8001 33.0563 39.0669 32.8113C39.0836 32.5614 39.0836 32.1284 38.8004 32.0284Z" fill="#FEFEFE" stroke="black" stroke-width="0.961754" stroke-miterlimit="10"/>
</g>
<defs>
<clipPath id="clip0_5754_3373">
<rect width="48.0877" height="48.0877" fill="white" transform="translate(0.761719 0.912109)"/>
</clipPath>
</defs>
</svg>
