<svg width="26" height="26" viewBox="0 0 26 26" fill="none" xmlns="http://www.w3.org/2000/svg">
<path d="M21.1359 23.9011L21.133 23.0261L21.1359 23.9011C22.9611 23.895 24.4375 22.4138 24.4375 20.5886V8.12489C24.4375 6.29544 22.9544 4.81239 21.125 4.81239H17.4907L14.1932 1.515L13.5745 2.13373L14.1932 1.515C13.5342 0.856004 12.4658 0.856004 11.8068 1.515L11.8068 1.515L8.50935 4.81239H4.875C3.04556 4.81239 1.5625 6.29545 1.5625 8.12489V20.6422C1.5625 22.4758 3.0522 23.9607 4.88592 23.9547L21.1359 23.9011Z" stroke="#3C3C3C" stroke-width="1.75"/>
<path d="M12.9993 7.85425C11.354 7.85425 10.0202 9.18807 10.0202 10.8334C10.0202 12.4788 11.354 13.8126 12.9993 13.8126C14.6447 13.8126 15.9785 12.4788 15.9785 10.8334C15.9785 9.18807 14.6447 7.85425 12.9993 7.85425ZM12.9993 14.3542C10.1574 14.3542 7.85352 16.6581 7.85352 19.5001C7.85352 19.9488 8.21729 20.3126 8.66602 20.3126H17.3327C17.7814 20.3126 18.1452 19.9488 18.1452 19.5001C18.1452 16.6581 15.8414 14.3542 12.9993 14.3542Z" fill="#3C3C3C"/>
</svg>
