<svg width="152" height="136" viewBox="0 0 152 136" fill="none" xmlns="http://www.w3.org/2000/svg">
<g clip-path="url(#clip0_5932_3174)">
<path d="M150.666 73.2336C150.612 73.2336 150.559 73.217 150.514 73.186L76.7649 22.0525C76.5405 21.8976 76.2738 21.8148 76.0007 21.8153C75.7276 21.8157 75.4612 21.8994 75.2373 22.0551L2.01949 73.1855C1.96157 73.2259 1.8899 73.2418 1.82023 73.2296C1.75055 73.2175 1.68859 73.1782 1.64797 73.1206C1.60735 73.0629 1.5914 72.9916 1.60363 72.9222C1.61585 72.8528 1.65526 72.7911 1.71317 72.7507L74.931 21.6203C75.2445 21.4024 75.6175 21.2853 75.9998 21.2847C76.3821 21.284 76.7555 21.3999 77.0697 21.6168L150.819 72.7502C150.865 72.7825 150.9 72.8288 150.919 72.8823C150.937 72.9358 150.938 72.9937 150.921 73.0477C150.904 73.1016 150.87 73.1487 150.824 73.1821C150.778 73.2156 150.723 73.2336 150.666 73.2336L150.666 73.2336Z" fill="#3F3D56"/>
<path d="M6.20508 75.046L76.0749 23.4932L146.475 78.7142L79.6749 118.139L43.4083 109.909L6.20508 75.046Z" fill="#E6E6E6"/>
<path d="M24.3328 135.586H11.9487C11.7367 135.587 11.5268 135.545 11.3309 135.465C11.135 135.384 10.957 135.266 10.807 135.117C10.6571 134.968 10.5381 134.791 10.4569 134.596C10.3758 134.401 10.334 134.192 10.334 133.981C10.334 133.77 10.3758 133.561 10.4569 133.366C10.5381 133.171 10.6571 132.994 10.807 132.845C10.957 132.696 11.135 132.578 11.3309 132.497C11.5268 132.417 11.7367 132.375 11.9487 132.375H24.3328C24.5447 132.375 24.7546 132.417 24.9505 132.497C25.1464 132.578 25.3245 132.696 25.4744 132.845C25.6244 132.994 25.7434 133.171 25.8245 133.366C25.9057 133.561 25.9475 133.77 25.9475 133.981C25.9475 134.192 25.9057 134.401 25.8245 134.596C25.7434 134.791 25.6244 134.968 25.4744 135.117C25.3245 135.266 25.1464 135.384 24.9505 135.465C24.7546 135.545 24.5447 135.587 24.3328 135.586Z" fill="#C5AFDA"/>
<path d="M77.0572 103.759C76.7948 103.759 76.5349 103.709 76.2921 103.61L33.2012 85.8094V30.0908C33.2017 29.5981 33.3986 29.1258 33.7485 28.7774C34.0985 28.429 34.5729 28.233 35.0678 28.2324H117.735C118.229 28.233 118.704 28.429 119.054 28.7774C119.404 29.1258 119.601 29.5981 119.601 30.0908V85.8483L119.52 85.8828L77.8454 103.601C77.5959 103.706 77.3279 103.759 77.0572 103.759Z" fill="white"/>
<path d="M77.0557 103.893C76.776 103.893 76.4988 103.839 76.2398 103.734L33.0664 85.899V30.0917C33.067 29.5638 33.2779 29.0577 33.6529 28.6844C34.0278 28.3112 34.5362 28.1012 35.0664 28.1006H117.733C118.263 28.1012 118.772 28.3112 119.147 28.6844C119.522 29.0577 119.732 29.5638 119.733 30.0917V85.9369L77.8963 103.724C77.6302 103.836 77.3444 103.893 77.0557 103.893ZM33.5997 85.5444L76.4432 103.243C76.8428 103.404 77.2904 103.402 77.688 103.235L119.2 85.5864V30.0917C119.199 29.7046 119.045 29.3335 118.77 29.0597C118.495 28.786 118.122 28.632 117.733 28.6316H35.0664C34.6776 28.632 34.3048 28.786 34.0298 29.0597C33.7549 29.3335 33.6002 29.7046 33.5997 30.0917L33.5997 85.5444Z" fill="#3F3D56"/>
<path d="M150.133 72.7021H150.08L119.467 85.7163L77.5814 103.522C77.4177 103.591 77.2421 103.627 77.0645 103.628C76.887 103.629 76.711 103.595 76.5466 103.528L33.3333 85.6791L1.96797 72.7234L1.92005 72.7021H1.86667C1.37176 72.7027 0.897288 72.8987 0.547339 73.2471C0.19739 73.5955 0.000549134 74.0678 0 74.5606V155.268C0.000549838 155.761 0.19739 156.233 0.547339 156.582C0.897288 156.93 1.37176 157.126 1.86667 157.127H150.133C150.628 157.126 151.103 156.93 151.453 156.582C151.803 156.233 151.999 155.761 152 155.268V74.5606C151.999 74.0678 151.803 73.5955 151.453 73.2471C151.103 72.8987 150.628 72.7027 150.133 72.7021ZM151.467 155.268C151.467 155.62 151.326 155.958 151.076 156.207C150.826 156.456 150.487 156.596 150.133 156.596H1.86667C1.51309 156.596 1.17403 156.456 0.924015 156.207C0.673997 155.958 0.533475 155.62 0.533333 155.268V74.5606C0.533817 74.2173 0.667563 73.8875 0.906608 73.6401C1.14565 73.3927 1.47149 73.2469 1.81602 73.2331L33.3333 86.2525L76.3414 104.019C76.807 104.207 77.3286 104.205 77.7921 104.011L119.467 86.2924L150.187 73.2331C150.531 73.2479 150.856 73.3941 151.094 73.6414C151.332 73.8886 151.466 74.2178 151.467 74.5606V155.268Z" fill="#3F3D56"/>
<path d="M76.6267 87.9603C75.0359 87.9632 73.4873 87.4511 72.2145 86.5011L72.1356 86.4421L55.5193 73.7765C54.7498 73.1895 54.1039 72.4573 53.6186 71.6218C53.1333 70.7863 52.818 69.8638 52.6908 68.907C52.5636 67.9502 52.6269 66.9778 52.8772 66.0453C53.1274 65.1129 53.5597 64.2386 54.1493 63.4725C54.7389 62.7064 55.4743 62.0634 56.3135 61.5802C57.1528 61.0971 58.0794 60.7832 59.0404 60.6565C60.0015 60.5299 60.9782 60.5929 61.9148 60.8421C62.8514 61.0912 63.7295 61.5216 64.4991 62.1086L75.2618 70.3248L100.696 37.3018C101.286 36.5359 102.021 35.8931 102.861 35.4103C103.7 34.9274 104.627 34.6138 105.588 34.4875C106.549 34.3612 107.526 34.4246 108.462 34.6741C109.399 34.9236 110.277 35.3543 111.046 35.9416L110.888 36.1554L111.05 35.9447C112.602 37.1321 113.617 38.8839 113.874 40.8157C114.13 42.7475 113.606 44.7015 112.417 46.2491L82.4999 85.092C81.808 85.9871 80.9182 86.7115 79.8997 87.2089C78.8812 87.7063 77.7612 87.9634 76.6267 87.9603Z" fill="#A585C1"/>
</g>
<defs>
<clipPath id="clip0_5932_3174">
<rect width="152" height="135.842" fill="white"/>
</clipPath>
</defs>
</svg>
