<svg width="49" height="48" viewBox="0 0 49 48" fill="none" xmlns="http://www.w3.org/2000/svg">
<path fill-rule="evenodd" clip-rule="evenodd" d="M39.1864 6.23926C38.4668 6.23964 37.7767 6.52573 37.2678 7.03465C36.7589 7.54358 36.4729 8.23372 36.4727 8.95341C36.4729 9.67309 36.7589 10.3632 37.2678 10.8722C37.7767 11.3811 38.4668 11.6672 39.1864 11.6676C39.9062 11.6673 40.5964 11.3812 41.1053 10.8723C41.6143 10.3633 41.9003 9.67316 41.9006 8.95341C41.9003 8.23366 41.6143 7.54347 41.1053 7.03453C40.5964 6.52559 39.9062 6.23954 39.1864 6.23926ZM39.1864 7.68356C39.518 7.69143 39.8333 7.82868 40.0651 8.06596C40.2968 8.30325 40.4265 8.62175 40.4265 8.95341C40.4265 9.28506 40.2968 9.60357 40.0651 9.84085C39.8333 10.0781 39.518 10.2154 39.1864 10.2233C38.8497 10.2231 38.5268 10.0892 38.2887 9.85112C38.0506 9.61302 37.9168 9.29013 37.9166 8.95341C37.9168 8.61668 38.0506 8.2938 38.2887 8.0557C38.5268 7.81759 38.8497 7.68375 39.1864 7.68356Z" fill="#0A0000"/>
<path fill-rule="evenodd" clip-rule="evenodd" d="M3.95689 26.7469C3.74517 26.9586 3.57722 27.2099 3.46263 27.4864C3.34804 27.763 3.28906 28.0595 3.28906 28.3588C3.28906 28.6582 3.34804 28.9547 3.46263 29.2312C3.57722 29.5078 3.74517 29.7591 3.95689 29.9708L18.1721 44.1859C18.5996 44.6134 19.1794 44.8536 19.784 44.8536C20.3886 44.8536 20.9684 44.6134 21.3959 44.1859L45.6675 19.9141C45.8029 19.7787 45.8792 19.5949 45.8792 19.4036V2.98546C45.8791 2.794 45.8029 2.61041 45.6675 2.47506C45.5321 2.33971 45.3485 2.26367 45.157 2.26367H28.7392C28.5476 2.26367 28.3638 2.33961 28.2284 2.47502L3.95689 26.7469ZM44.4349 19.1045V3.70761H29.0383L4.97779 27.7678C4.8211 27.9245 4.73308 28.137 4.73308 28.3587C4.73308 28.5803 4.8211 28.7928 4.97779 28.9495L19.193 43.1647C19.3497 43.3214 19.5622 43.4094 19.7838 43.4094C20.0054 43.4094 20.218 43.3214 20.3747 43.1647L44.4349 19.1045Z" fill="#0A0000"/>
<path fill-rule="evenodd" clip-rule="evenodd" d="M10.3167 28.8705L19.2719 37.8257C19.4076 37.9597 19.5908 38.0346 19.7816 38.034C19.9724 38.0335 20.1551 37.9574 20.29 37.8225C20.4249 37.6876 20.5009 37.5049 20.5015 37.3141C20.5021 37.1234 20.4272 36.9401 20.2932 36.8044L11.3379 27.8492C11.2024 27.714 11.0188 27.638 10.8273 27.638C10.6358 27.638 10.4522 27.714 10.3167 27.8492C10.1814 27.9847 10.1055 28.1684 10.1055 28.3598C10.1055 28.5513 10.1814 28.7349 10.3167 28.8705ZM13.302 26.6628L22.2572 35.618C22.3243 35.6851 22.4039 35.7382 22.4915 35.7745C22.5791 35.8108 22.673 35.8294 22.7678 35.8294C22.8626 35.8294 22.9565 35.8107 23.0441 35.7744C23.1317 35.7381 23.2113 35.6849 23.2783 35.6179C23.3453 35.5508 23.3985 35.4712 23.4348 35.3836C23.471 35.296 23.4897 35.2021 23.4897 35.1073C23.4897 35.0125 23.471 34.9186 23.4347 34.831C23.3984 34.7434 23.3452 34.6638 23.2781 34.5968L14.3229 25.6416C14.1866 25.5106 14.0043 25.4382 13.8153 25.4401C13.6262 25.442 13.4454 25.518 13.3118 25.6517C13.1781 25.7854 13.1022 25.9662 13.1004 26.1553C13.0986 26.3443 13.1709 26.5265 13.302 26.6628ZM16.2869 23.6779L25.2422 32.6331C25.3777 32.7683 25.5613 32.8443 25.7528 32.8443C25.9443 32.8443 26.1279 32.7683 26.2634 32.6331C26.3987 32.4976 26.4746 32.3139 26.4746 32.1225C26.4746 31.931 26.3987 31.7474 26.2634 31.6118L17.3082 22.6566C17.1725 22.5226 16.9892 22.4477 16.7985 22.4482C16.6077 22.4488 16.425 22.5249 16.2901 22.6598C16.1552 22.7946 16.0792 22.9774 16.0786 23.1682C16.078 23.3589 16.1529 23.5421 16.2869 23.6779Z" fill="#0A0000"/>
</svg>
